<?xml version="1.0" encoding="UTF-8"?>
<svg version="1.1" xmlns="http://www.w3.org/2000/svg" width="184" height="95">
<path d="M0 0 C0 17.82 0 35.64 0 54 C-8.73467297 52.75218958 -12.99242578 49.80002241 -18.51953125 43.19921875 C-22.97938604 36.57415741 -22.82522504 27.38714326 -21.65234375 19.73046875 C-20.7860831 15.80681759 -19.67863717 12.97626352 -17 10 C-16.2575 8.989375 -15.515 7.97875 -14.75 6.9375 C-11.31259593 2.825077 -5.45664856 0 0 0 Z " fill="#FFFFFF" transform="translate(26,12)"/>
<path d="M0 0 C5.08657099 0 6.80169371 0.40955569 11 3 C13.125 5.4375 13.125 5.4375 15 8 C16.051875 8.99 16.051875 8.99 17.125 10 C21.61824858 14.79279849 21.33639828 20.22872672 21.3125 26.4375 C21.32861328 27.27087891 21.34472656 28.10425781 21.36132812 28.96289062 C21.36735094 36.58175621 18.83152374 41.71800198 13.81640625 47.38671875 C9.95495523 50.81635159 5.16785009 53 0 53 C0 35.51 0 18.02 0 0 Z " fill="#FFFFFF" transform="translate(36,13)"/>
<path d="M0 0 C6.13886214 -0.00534179 12.27583208 0.02838736 18.41430664 0.09765625 C20.50050441 0.115776 22.58682182 0.12339209 24.6730957 0.12011719 C27.68013347 0.11724856 30.68471042 0.15268299 33.69140625 0.1953125 C34.61772354 0.18621857 35.54404083 0.17712463 36.49842834 0.16775513 C42.27367847 0.29611677 45.48303494 1.39646022 49.77622986 5.30075073 C52.17222723 8.62768006 51.59765486 12.12448548 51 16 C50.43295231 19.36010905 49.77581812 22.68199213 49 26 C47.35 25.67 45.7 25.34 44 25 C43.7525 24.071875 43.505 23.14375 43.25 22.1875 C41.91303807 18.77824707 40.94881621 17.96587748 38 16 C38 15.34 38 14.68 38 14 C37.12786865 14.0314209 36.2557373 14.0628418 35.35717773 14.09521484 C32.09358577 14.19802222 28.83173476 14.27294561 25.56713867 14.32958984 C24.15963444 14.35960197 22.75231473 14.40042758 21.34545898 14.45263672 C7.36714333 14.95805614 7.36714333 14.95805614 2.08618164 10.08056641 C0.39167248 6.83475676 0.32427386 3.63289887 0 0 Z " fill="#FFFFFF" transform="translate(5,69)"/>
<path d="M0 0 C0 9.9 0 19.8 0 30 C-2.31 30.33 -4.62 30.66 -7 31 C-10.3 24.73 -13.6 18.46 -17 12 C-17.24936191 17.17507544 -17.24936191 17.17507544 -17.47802734 22.35107422 C-17.77777778 27.77777778 -17.77777778 27.77777778 -20 30 C-20.99 30 -21.98 30 -23 30 C-23.02465881 26.03069011 -23.04284023 22.06140966 -23.05493164 18.09204102 C-23.05997057 16.74079614 -23.06680177 15.38955674 -23.07543945 14.03833008 C-23.08752419 12.09979566 -23.09269828 10.161222 -23.09765625 8.22265625 C-23.10289307 7.05484619 -23.10812988 5.88703613 -23.11352539 4.68383789 C-23 2 -23 2 -22 1 C-19.66702567 0.95907063 -17.33294775 0.95758277 -15 1 C-12 7 -9 13 -6 19 C-5.97421875 17.87980469 -5.9484375 16.75960937 -5.921875 15.60546875 C-5.86559365 14.13277354 -5.80824632 12.6601188 -5.75 11.1875 C-5.72873047 10.08051758 -5.72873047 10.08051758 -5.70703125 8.95117188 C-5.4587934 3.46511535 -5.4587934 3.46511535 -3.015625 0.98828125 C-1 0 -1 0 0 0 Z " fill="#FFFFFF" transform="translate(140,32)"/>
<path d="M0 0 C1.11761719 0.02707031 1.11761719 0.02707031 2.2578125 0.0546875 C4.08909701 0.10164351 5.91971649 0.17338348 7.75 0.25 C7.75 1.57 7.75 2.89 7.75 4.25 C3.46 4.25 -0.83 4.25 -5.25 4.25 C-7.20021536 10.71008837 -7.47262303 16.5218373 -7.25 23.25 C-3.94432511 24.10387105 -3.94432511 24.10387105 -0.25 24.25 C2.29002013 22.87716577 2.29002013 22.87716577 3.75 20.25 C4.55765878 16.60278304 4.55765878 16.60278304 4.75 13.25 C6.07 12.92 7.39 12.59 8.75 12.25 C8.75 17.86 8.75 23.47 8.75 29.25 C7.1 28.92 5.45 28.59 3.75 28.25 C2.76 28.58 1.77 28.91 0.75 29.25 C-8.35300429 29.68347639 -8.35300429 29.68347639 -11.25 27.25 C-12.56725548 22.65740656 -12.50509608 17.9290641 -12.5625 13.1875 C-12.59150391 12.38505859 -12.62050781 11.58261719 -12.65039062 10.75585938 C-12.68963516 7.11819309 -12.62347016 4.88150408 -10.74609375 1.70703125 C-7.21356644 -0.35499173 -3.96038482 -0.1819258 0 0 Z " fill="#FFFFFF" transform="translate(83.25,32.75)"/>
<path d="M0 0 C1.58206057 0.00667536 3.16410534 0.0186375 4.74609375 0.03515625 C5.55240234 0.03966797 6.35871094 0.04417969 7.18945312 0.04882812 C9.18753131 0.06065107 11.18557158 0.07858711 13.18359375 0.09765625 C13.18359375 1.41765625 13.18359375 2.73765625 13.18359375 4.09765625 C6.74859375 4.59265625 6.74859375 4.59265625 0.18359375 5.09765625 C-0.14640625 7.40765625 -0.47640625 9.71765625 -0.81640625 12.09765625 C3.14359375 12.09765625 7.10359375 12.09765625 11.18359375 12.09765625 C11.51359375 13.41765625 11.84359375 14.73765625 12.18359375 16.09765625 C7.89359375 16.09765625 3.60359375 16.09765625 -0.81640625 16.09765625 C-0.48640625 18.73765625 -0.15640625 21.37765625 0.18359375 24.09765625 C4.47359375 24.42765625 8.76359375 24.75765625 13.18359375 25.09765625 C13.18359375 26.41765625 13.18359375 27.73765625 13.18359375 29.09765625 C10.37103094 29.12449937 7.55872134 29.14441813 4.74609375 29.16015625 C3.94365234 29.16853516 3.14121094 29.17691406 2.31445312 29.18554688 C0.27064154 29.19417055 -1.77324527 29.14993775 -3.81640625 29.09765625 C-5.61919816 27.29486434 -4.9467723 24.55717924 -4.94921875 22.12890625 C-4.95050781 20.91847656 -4.95179687 19.70804688 -4.953125 18.4609375 C-4.94925781 17.18605469 -4.94539063 15.91117188 -4.94140625 14.59765625 C-4.94527344 13.32277344 -4.94914062 12.04789063 -4.953125 10.734375 C-4.95183594 9.52394531 -4.95054688 8.31351563 -4.94921875 7.06640625 C-4.94809082 5.94685547 -4.94696289 4.82730469 -4.94580078 3.67382812 C-4.73899813 -0.44349566 -4.32584485 0.11069204 0 0 Z " fill="#FFFFFF" transform="translate(100.81640625,32.90234375)"/>
<path d="M0 0 C5.28 0 10.56 0 16 0 C16 0.66 16 1.32 16 2 C16.99 2.33 17.98 2.66 19 3 C18.80748782 12.01307045 18.80748782 12.01307045 15.75 15.75 C14.8425 16.4925 13.935 17.235 13 18 C11.27139169 19.95346793 9.64714553 21.97636407 8 24 C11.96 24 15.92 24 20 24 C19.01 26.475 19.01 26.475 18 29 C12.06 29 6.12 29 0 29 C0 24 0 24 1.1875 22.5625 C1.785625 22.046875 2.38375 21.53125 3 21 C4.67067133 19.00334402 6.33752986 17.00348966 8 15 C8.66 14.34 9.32 13.68 10 13 C10.69748583 11.68252676 11.36959957 10.35085807 12 9 C12.66 9 13.32 9 14 9 C13.44986966 6.93719227 13.44986966 6.93719227 12 5 C9.1213065 4.29464389 9.1213065 4.29464389 5.875 4.25 C4.23144531 4.16492187 4.23144531 4.16492187 2.5546875 4.078125 C1.71164063 4.05234375 0.86859375 4.0265625 0 4 C0 2.68 0 1.36 0 0 Z " fill="#FFFFFF" transform="translate(161,33)"/>
<path d="M0 0 C3.3 0 6.6 0 10 0 C10 8.25 10 16.5 10 25 C11.32 25 12.64 25 14 25 C14 26.32 14 27.64 14 29 C9.71 29 5.42 29 1 29 C1 27.68 1 26.36 1 25 C2.32 25 3.64 25 5 25 C5 18.07 5 11.14 5 4 C3.02 4 1.04 4 -1 4 C-0.67 2.68 -0.34 1.36 0 0 Z " fill="#FFFFFF" transform="translate(144,33)"/>
<path d="M0 0 C3.5625 0.375 3.5625 0.375 5.5625 1.9375 C6.99385511 5.42642809 6.496466 7.77255972 5.5625 11.375 C1.7121895 13.94187367 -0.02319763 13.20788724 -4.4375 12.375 C-5.61103189 8.85440432 -5.63896402 6.068507 -5.4375 2.375 C-3.4375 0.375 -3.4375 0.375 0 0 Z " fill="#FFFFFF" transform="translate(51.4375,0.625)"/>
<path d="" fill="#FFFFFF" transform="translate(0,0)"/>
<path d="" fill="#FFFFFF" transform="translate(0,0)"/>
<path d="" fill="#FFFFFF" transform="translate(0,0)"/>
<path d="" fill="#FFFFFF" transform="translate(0,0)"/>
<path d="" fill="#FFFFFF" transform="translate(0,0)"/>
<path d="" fill="#FFFFFF" transform="translate(0,0)"/>
<path d="" fill="#FFFFFF" transform="translate(0,0)"/>
<path d="" fill="#FFFFFF" transform="translate(0,0)"/>
<path d="" fill="#FFFFFF" transform="translate(0,0)"/>
<path d="" fill="#FFFFFF" transform="translate(0,0)"/>
<path d="" fill="#FFFFFF" transform="translate(0,0)"/>
<path d="" fill="#FFFFFF" transform="translate(0,0)"/>
<path d="" fill="#FFFFFF" transform="translate(0,0)"/>
<path d="" fill="#FFFFFF" transform="translate(0,0)"/>
<path d="" fill="#FFFFFF" transform="translate(0,0)"/>
<path d="" fill="#FFFFFF" transform="translate(0,0)"/>
<path d="" fill="#FFFFFF" transform="translate(0,0)"/>
<path d="" fill="#FFFFFF" transform="translate(0,0)"/>
<path d="" fill="#FFFFFF" transform="translate(0,0)"/>
<path d="" fill="#FFFFFF" transform="translate(0,0)"/>
<path d="" fill="#FFFFFF" transform="translate(0,0)"/>
<path d="" fill="#FFFFFF" transform="translate(0,0)"/>
<path d="" fill="#FFFFFF" transform="translate(0,0)"/>
<path d="" fill="#FFFFFF" transform="translate(0,0)"/>
</svg>
