<?xml version="1.0" encoding="UTF-8"?>
<svg version="1.1" xmlns="http://www.w3.org/2000/svg" width="1170" height="2556">
<path d="M0 0 C386.1 0 772.2 0 1170 0 C1170 843.48 1170 1686.96 1170 2556 C783.9 2556 397.8 2556 0 2556 C0 1712.52 0 869.04 0 0 Z " fill="#35AB7B" transform="translate(0,0)"/>
<path d="M0 0 C16.95942429 2.11992804 33.10008083 10.56573748 44 24 C58.58426563 44.02204165 64.77725293 65.76003935 61.69091797 90.47509766 C58.34787539 110.53762263 48.55365886 129.47385961 32.359375 142.05078125 C22.3572273 149.15123637 12.21121173 153.47359853 0 155 C0 103.85 0 52.7 0 0 Z " fill="#FDFEFD" transform="translate(418,1177)"/>
<path d="M0 0 C0 51.15 0 102.3 0 155 C-18.46707547 152.69161557 -33.50618457 142.30925437 -45.34765625 128.2109375 C-59.84653159 108.81055111 -63.49448466 86.07432705 -60.5 62.4453125 C-57.2263642 41.34249532 -45.61085178 23.71129488 -28.8125 10.81640625 C-20.43180117 5.40387159 -10.03013069 0 0 0 Z " fill="#FEFEFE" transform="translate(384,1177)"/>
<path d="M0 0 C15.09945152 -0.04680945 30.19889968 -0.08203257 45.29840755 -0.10362434 C52.31004709 -0.11391816 59.32164143 -0.12794208 66.33325195 -0.15087891 C73.10244232 -0.17301208 79.87158573 -0.18457608 86.64081001 -0.18975449 C89.22071635 -0.19344393 91.80062019 -0.20064847 94.38050652 -0.21146011 C97.99973939 -0.22602134 101.61877955 -0.22797597 105.23803711 -0.22705078 C106.29971603 -0.23424133 107.36139496 -0.24143188 108.45524597 -0.24884033 C120.84120383 -0.2146789 130.8737478 2.45911955 140.171875 10.93359375 C147.67370133 19.41322223 148.54309773 29.056296 148.140625 39.8828125 C147.46898732 49.99469085 145.89973864 65.06528625 138 72 C135 71 135 71 133.75390625 69.1015625 C131.56129922 64.54381543 129.62210821 60.04408499 128 55.25 C125.73385217 48.87421108 123.16594221 44.93728216 117 41.75 C115.67264602 41.15318599 114.33980238 40.56831781 113 40 C112.175 39.608125 111.35 39.21625 110.5 38.8125 C103.12997929 36.41724327 95.1427535 36.82869485 87.4832077 36.77020454 C85.37888006 36.7535663 83.27471505 36.73032208 81.17047119 36.70530701 C75.1926712 36.6351634 69.21480567 36.5747068 63.23681641 36.52319336 C59.56404363 36.49108363 55.89146347 36.44973722 52.21884918 36.40299797 C50.83325973 36.38717354 49.44762624 36.37476411 48.06197357 36.36609077 C33.89412249 36.27613294 20.65327175 35.7506954 9.640625 25.88671875 C3.56624751 19.46871772 1.1558942 13.97486502 0.43359375 5.2421875 C0.35036865 4.25847168 0.26714355 3.27475586 0.18139648 2.26123047 C0.12153564 1.51502441 0.0616748 0.76881836 0 0 Z " fill="#FDFEFE" transform="translate(327,1348)"/>
<path d="M0 0 C0 28.05 0 56.1 0 85 C-3.60417986 85.90104497 -6.74157028 86.3616807 -10.4375 86.5625 C-11.54996094 86.64628906 -12.66242187 86.73007813 -13.80859375 86.81640625 C-17 86 -17 86 -19.4375 82.92578125 C-20.32606441 81.30221156 -21.17473452 79.65664182 -22 78 C-22.55888916 76.90018799 -23.11777832 75.80037598 -23.69360352 74.66723633 C-25.69742272 70.67584781 -27.63093225 66.65171434 -29.5625 62.625 C-30.26960749 61.15974969 -30.97688481 59.69458133 -31.68432617 58.22949219 C-36.67095992 47.87832353 -41.53664129 37.4746377 -46.28149414 27.01025391 C-46.73129639 26.02202637 -47.18109863 25.03379883 -47.64453125 24.015625 C-48.02971924 23.16258789 -48.41490723 22.30955078 -48.81176758 21.43066406 C-50.07026388 18.85626728 -51.51342623 16.44827979 -53 14 C-53.00586624 14.81574997 -53.01173248 15.63149994 -53.01777649 16.4719696 C-53.07572821 24.1671613 -53.1478188 31.86203013 -53.23571491 39.5569334 C-53.28040455 43.51278832 -53.31966357 47.46854058 -53.34643555 51.42456055 C-53.37248289 55.24378758 -53.41289485 59.0626193 -53.46318626 62.88160133 C-53.47984542 64.33715706 -53.49136565 65.79278116 -53.49761391 67.24841881 C-53.50726585 69.29062518 -53.53533523 71.33182247 -53.56762695 73.3737793 C-53.58428154 75.11584908 -53.58428154 75.11584908 -53.60127258 76.89311218 C-54.04247949 80.33100061 -54.94339417 82.2350459 -57 85 C-59.70879335 86.35439668 -62.00933268 86.06501451 -65 86 C-65.02313567 75.21268989 -65.04092136 64.42538564 -65.05181217 53.6380558 C-65.05703831 48.6294632 -65.0641311 43.62088754 -65.07543945 38.61230469 C-65.08627786 33.78182178 -65.09227887 28.95135518 -65.09487724 24.12086105 C-65.09672976 22.27481199 -65.10034709 20.42876385 -65.10573006 18.58272171 C-65.11295312 16.00385839 -65.1139904 13.42506315 -65.11352539 10.84619141 C-65.11712067 10.07727066 -65.12071594 9.30834991 -65.12442017 8.51612854 C-65.11405216 3.22810432 -65.11405216 3.22810432 -64 1 C-58.39 1 -52.78 1 -47 1 C-39.15059698 16.41566124 -31.75803374 32.01063945 -24.51611328 47.71972656 C-22.30194674 52.51031298 -20.06455383 57.28962294 -17.8125 62.0625 C-17.26891846 63.222052 -17.26891846 63.222052 -16.71435547 64.4050293 C-15.28869811 67.41977977 -13.85340826 70.2198876 -12 73 C-11.99857498 72.17172195 -11.99714996 71.34344391 -11.99568176 70.49006653 C-11.97783829 62.67707038 -11.93618536 54.86463982 -11.86790943 47.05191517 C-11.83364563 43.03542962 -11.8085305 39.01932416 -11.80444336 35.00268555 C-11.80015893 31.12494227 -11.77168595 27.24805631 -11.72656822 23.37058067 C-11.71359754 21.89269699 -11.70928408 20.41471068 -11.71384621 18.93677711 C-11.71875606 16.86292053 -11.69265193 14.79156611 -11.65942383 12.71801758 C-11.65276199 11.53887283 -11.64610016 10.35972809 -11.63923645 9.14485168 C-10.81099557 5.07015488 -9.18988945 3.58276443 -6 1 C-3 0 -3 0 0 0 Z " fill="#FAFDFB" transform="translate(727,1236)"/>
<path d="M0 0 C1.08861328 -0.00322266 2.17722656 -0.00644531 3.29882812 -0.00976562 C8.96393668 0.02811656 14.03318689 0.15310928 19.3125 2.3125 C21.4644437 5.54041555 21.51336443 6.59650809 21.3125 10.3125 C20.34425293 10.32708252 19.37600586 10.34166504 18.37841797 10.35668945 C14.76623676 10.41491567 11.15466317 10.49214536 7.54296875 10.57495117 C5.98349919 10.60808667 4.42391298 10.6361537 2.86425781 10.65893555 C0.61473148 10.69269281 -1.63373687 10.74501504 -3.8828125 10.80078125 C-4.5736795 10.80717117 -5.26454651 10.8135611 -5.97634888 10.82014465 C-11.80563848 10.99491042 -15.90652935 12.43258653 -19.9375 16.6875 C-25.22796575 24.62319863 -24.86956739 33.29172757 -24.875 42.5 C-24.88724609 43.57314453 -24.89949219 44.64628906 -24.91210938 45.75195312 C-24.92981864 55.50975899 -24.59725199 65.20769727 -18.6875 73.3125 C-14.90208412 76.86849674 -10.72305625 76.86089478 -5.74609375 76.74609375 C-0.31398936 75.97602531 4.38864018 73.63005748 9.3125 71.3125 C10.3025 70.9825 11.2925 70.6525 12.3125 70.3125 C12.3218457 69.41942139 12.33119141 68.52634277 12.34082031 67.60620117 C12.38485304 64.29014838 12.44646861 60.97539061 12.52001953 57.65991211 C12.54823182 56.22546317 12.56944524 54.79085871 12.58349609 53.35620117 C12.60492449 51.29264698 12.65156467 49.23096294 12.703125 47.16796875 C12.72407227 45.92684326 12.74501953 44.68571777 12.76660156 43.40698242 C13.3125 40.3125 13.3125 40.3125 14.91308594 38.4465332 C17.3125 37.3125 17.3125 37.3125 24.3125 36.3125 C24.3125 52.4825 24.3125 68.6525 24.3125 85.3125 C21.6725 85.3125 19.0325 85.3125 16.3125 85.3125 C14.8518715 82.66511084 14.3125 81.41801666 14.3125 78.3125 C13.86261719 78.62703125 13.41273438 78.9415625 12.94921875 79.265625 C3.74572094 85.38899429 -5.53144481 88.79082972 -16.6875 87.3125 C-23.44091846 85.56199736 -27.91213097 82.1314174 -31.6875 76.3125 C-40.78560009 60.69859886 -39.73232395 37.43572652 -35.66015625 20.3515625 C-33.31292635 13.0176474 -29.1704014 7.50763183 -22.6875 3.3125 C-15.26612256 0.12554212 -7.96928718 -0.11922931 0 0 Z " fill="#F7FCFA" transform="translate(559.6875,1235.6875)"/>
<path d="M0 0 C1.24669968 -0.0049926 1.24669968 -0.0049926 2.51858521 -0.01008606 C4.2788233 -0.01515341 6.03907102 -0.01749444 7.79931641 -0.01733398 C10.49007055 -0.01951686 13.18041238 -0.0376644 15.87109375 -0.05664062 C17.58072776 -0.05957532 19.29036373 -0.06155961 21 -0.0625 C22.20642654 -0.07327827 22.20642654 -0.07327827 23.43722534 -0.08427429 C31.25668161 -0.05236901 31.25668161 -0.05236901 33.6328125 2.16796875 C34.3828125 5.79296875 34.3828125 5.79296875 34.6328125 9.16796875 C33.52768311 9.18778809 32.42255371 9.20760742 31.28393555 9.22802734 C27.18555837 9.30407324 23.08753671 9.39279204 18.98950195 9.48535156 C17.21548479 9.52364554 15.44138986 9.5584977 13.66723633 9.58984375 C11.11771851 9.63548547 8.5687362 9.6934806 6.01953125 9.75390625 C5.22568527 9.76545746 4.43183929 9.77700867 3.61393738 9.78890991 C-0.21042658 9.8915226 -2.11314849 9.99860941 -5.3671875 12.16796875 C-5.87623134 14.58368005 -5.87623134 14.58368005 -5.87890625 17.39453125 C-5.91201904 18.32346191 -5.94513184 19.25239258 -5.97924805 20.20947266 C-6.01659058 21.98330322 -6.01659058 21.98330322 -6.0546875 23.79296875 C-6.1578125 27.54671875 -6.2609375 31.30046875 -6.3671875 35.16796875 C5.5128125 35.16796875 17.3928125 35.16796875 29.6328125 35.16796875 C29.6328125 38.13796875 29.6328125 41.10796875 29.6328125 44.16796875 C17.4228125 44.16796875 5.2128125 44.16796875 -7.3671875 44.16796875 C-7.1815625 49.92234375 -7.1815625 49.92234375 -6.9921875 55.79296875 C-6.95818848 56.99131348 -6.92418945 58.1896582 -6.88916016 59.42431641 C-6.8535498 60.3838623 -6.81793945 61.3434082 -6.78125 62.33203125 C-6.7498291 63.3060791 -6.7184082 64.28012695 -6.68603516 65.28369141 C-6.40430728 68.75685653 -6.40430728 68.75685653 -4.3671875 74.16796875 C14.9378125 74.66296875 14.9378125 74.66296875 34.6328125 75.16796875 C33.6328125 84.16796875 33.6328125 84.16796875 32.6328125 85.16796875 C27.06077571 85.46172311 21.48602108 85.48219458 15.90698242 85.51806641 C14.02827509 85.53455906 12.14962876 85.56175985 10.27124023 85.60009766 C7.55679904 85.65521565 4.84383381 85.67679952 2.12890625 85.69140625 C1.29838242 85.71407562 0.46785858 85.736745 -0.38783264 85.76010132 C-6.51980004 85.73817362 -10.62142329 84.07441157 -15.3671875 80.16796875 C-19.5025435 74.83596446 -18.74245843 68.55049151 -18.6171875 62.10546875 C-18.60695557 60.98889893 -18.59672363 59.8723291 -18.58618164 58.72192383 C-18.49890193 51.95404778 -18.24009588 45.25264256 -17.48828125 38.5234375 C-17.25277008 36.22818065 -17.25277008 36.22818065 -17.84692383 34.30322266 C-18.80171916 30.38457415 -18.5938964 26.37027188 -18.6171875 22.35546875 C-18.6378125 21.47826172 -18.6584375 20.60105469 -18.6796875 19.69726562 C-18.7134095 14.06147673 -18.0810529 10.13801679 -15.3671875 5.16796875 C-10.24132236 0.41716691 -6.78840135 0.00934552 0 0 Z " fill="#F6FBF9" transform="translate(615.3671875,1236.83203125)"/>
<path d="M0 0 C1.61648438 -0.04350586 1.61648438 -0.04350586 3.265625 -0.08789062 C11.23641651 -0.15031249 19.73572932 0.57385194 25.91064453 6.15112305 C30.72939125 11.56721671 31.30248405 15.51361635 31.19921875 22.7421875 C29.62863284 40.03755521 14.04639892 52.37444826 2.42529297 63.77758789 C1.63654785 64.55223389 0.84780273 65.32687988 0.03515625 66.125 C-1.02239868 67.15560547 -1.02239868 67.15560547 -2.10131836 68.20703125 C-4.25301444 70.44568815 -6.18528609 72.88785761 -8.125 75.3125 C5.735 75.6425 19.595 75.9725 33.875 76.3125 C32.875 83.3125 32.875 83.3125 30.875 86.3125 C27.92101242 87.29716253 26.02250978 87.43377836 22.94458008 87.42602539 C21.94376907 87.42594986 20.94295807 87.42587433 19.91181946 87.42579651 C18.83361435 87.42063522 17.75540924 87.41547394 16.64453125 87.41015625 C15.53897385 87.4087413 14.43341644 87.40732635 13.2943573 87.40586853 C9.75871083 87.40026514 6.22312738 87.38771204 2.6875 87.375 C0.29231862 87.36998544 -2.10286375 87.36542246 -4.49804688 87.36132812 C-10.37371947 87.35029461 -16.24935523 87.33355316 -22.125 87.3125 C-22.16688266 85.70700996 -22.19682223 84.1012052 -22.22167969 82.49536133 C-22.24859894 81.15408928 -22.24859894 81.15408928 -22.27606201 79.78572083 C-22.05904195 76.23262014 -20.76066048 74.58446552 -18.375 72 C-17.14910156 70.63488281 -17.14910156 70.63488281 -15.8984375 69.2421875 C-14.97461518 68.2650036 -14.05010489 67.28846977 -13.125 66.3125 C-12.11519776 65.21276121 -11.1074429 64.11113956 -10.1015625 63.0078125 C-8.04819611 60.76353328 -5.98456923 58.52952613 -3.91015625 56.3046875 C12.09253164 40.12303162 12.09253164 40.12303162 19.375 19.4375 C19.23160545 16.38903806 19.16566502 15.63323382 17.0625 13.3125 C12.66831741 11.30373082 8.88471016 11.18124778 4.14453125 11.21484375 C3.01890022 11.21696617 3.01890022 11.21696617 1.87052917 11.21913147 C-0.5238546 11.2247244 -2.91814453 11.23727556 -5.3125 11.25 C-6.93684761 11.25501592 -8.56119668 11.25957866 -10.18554688 11.26367188 C-14.16540069 11.27469152 -18.14518444 11.29195127 -22.125 11.3125 C-20.5 3.5625 -20.5 3.5625 -17.125 1.3125 C-11.50396584 -0.15347416 -5.77096956 0.05068182 0 0 Z " fill="#F8FCFA" transform="translate(815.125,1235.6875)"/>
<path d="M0 0 C1.66203712 -0.01902626 1.66203712 -0.01902626 3.35765076 -0.03843689 C4.55455032 -0.03550125 5.75144989 -0.03256561 6.98461914 -0.02954102 C8.82848961 -0.03740379 8.82848961 -0.03740379 10.70960999 -0.04542542 C13.97808371 -0.05350148 17.24613937 -0.04636676 20.5145874 -0.03509521 C23.83349703 -0.03236759 27.15216116 -0.06754228 30.47094727 -0.09399414 C32.99633746 -0.0956063 35.5217302 -0.09502834 38.04711914 -0.09204102 C39.24199448 -0.10327499 40.43686981 -0.11450897 41.66795349 -0.12608337 C43.33471886 -0.11201195 43.33471886 -0.11201195 45.03515625 -0.09765625 C46.50051064 -0.097407 46.50051064 -0.097407 47.99546814 -0.09715271 C51.3084696 0.5447561 52.49875279 1.80583096 54.58227539 4.40405273 C55.09985352 6.53881836 55.09985352 6.53881836 55.11352539 8.81030273 C55.12125977 10.04973633 55.12125977 10.04973633 55.12915039 11.31420898 C55.11368164 12.16885742 55.09821289 13.02350586 55.08227539 13.90405273 C55.09774414 14.75870117 55.11321289 15.61334961 55.12915039 16.49389648 C55.12399414 17.32018555 55.11883789 18.14647461 55.11352539 18.99780273 C55.10901367 19.74739258 55.10450195 20.49698242 55.09985352 21.26928711 C54.3645847 24.30192417 52.9763413 25.43971687 50.58227539 27.40405273 C47.99546814 27.9119873 47.99546814 27.9119873 45.03515625 27.92163086 C43.92397934 27.9342395 42.81280243 27.94684814 41.66795349 27.95983887 C40.47307816 27.95174194 39.27820282 27.94364502 38.04711914 27.93530273 C36.81691544 27.93912964 35.58671173 27.94295654 34.31922913 27.94689941 C31.71932151 27.94962096 29.11938662 27.94224301 26.51953125 27.92553711 C23.85004046 27.91119815 21.18377965 27.90729054 18.51464844 27.92553711 C14.67097277 27.95019581 10.82833753 27.94726904 6.98461914 27.93530273 C5.78771957 27.94339966 4.59082001 27.95149658 3.35765076 27.95983887 C1.69561363 27.9409259 1.69561363 27.9409259 0 27.92163086 C-0.97610733 27.91844849 -1.95221466 27.91526611 -2.957901 27.9119873 C-5.41772461 27.40405273 -5.41772461 27.40405273 -7.23207092 25.51185608 C-8.61086169 23.06070207 -8.80429173 21.5427631 -8.81616211 18.74389648 C-8.8200293 17.86797852 -8.82389648 16.99206055 -8.82788086 16.08959961 C-8.8162793 15.18274414 -8.80467773 14.27588867 -8.79272461 13.34155273 C-8.80432617 12.43083008 -8.81592773 11.52010742 -8.82788086 10.58178711 C-8.82401367 9.7071582 -8.82014648 8.8325293 -8.81616211 7.93139648 C-8.81277832 7.13467529 -8.80939453 6.3379541 -8.8059082 5.51708984 C-7.88378128 0.49758766 -4.58262997 0.02536594 0 0 Z " fill="#FEFEFE" transform="translate(1008.417724609375,74.595947265625)"/>
<path d="M0 0 C7.59 0 15.18 0 23 0 C23 24.75 23 49.5 23 75 C27.29 75 31.58 75 36 75 C36 78.3 36 81.6 36 85 C23.79 85 11.58 85 -1 85 C-1 82.03 -1 79.06 -1 76 C5.435 75.505 5.435 75.505 12 75 C12 53.22 12 31.44 12 9 C6.72 9 1.44 9 -4 9 C-3 3 -3 3 0 0 Z " fill="#F9FCFB" transform="translate(746,1237)"/>
<path d="M0 0 C1.16478378 -0.00945648 2.32956757 -0.01891296 3.52964783 -0.02865601 C4.78387039 -0.02258331 6.03809296 -0.01651062 7.33032227 -0.01025391 C8.62237076 -0.01312408 9.91441925 -0.01599426 11.24562073 -0.01895142 C13.97847267 -0.02336943 16.71103002 -0.01696207 19.44384766 -0.00292969 C22.93876629 0.01414547 26.43299287 0.00432915 29.92788601 -0.01364708 C33.27041947 -0.02712633 36.61276917 -0.01767362 39.95532227 -0.01025391 C41.2075206 -0.0163266 42.45971893 -0.02239929 43.74986267 -0.02865601 C44.91779861 -0.01919952 46.08573456 -0.00974304 47.2890625 0 C48.31402328 0.00238678 49.33898407 0.00477356 50.39500427 0.00723267 C54.67403147 0.58646845 57.30102693 2.59331315 60.49438477 5.38818359 C63.10225246 9.95046693 62.75142212 14.22780212 62.64672852 19.38818359 C62.65381836 20.37302734 62.6609082 21.35787109 62.66821289 22.37255859 C62.58817752 31.48427752 62.58817752 31.48427752 59.20922852 35.38818359 C55.53490597 38.82177957 53.34402462 39.89007291 48.32080078 39.90576172 C47.15932022 39.91837036 45.99783966 39.930979 44.80116272 39.94396973 C42.93227638 39.93182434 42.93227638 39.93182434 41.02563477 39.91943359 C39.73737289 39.9232605 38.44911102 39.9270874 37.12181091 39.93103027 C34.39904526 39.93691546 31.67680584 39.92839661 28.95410156 39.90966797 C25.4759372 39.88690032 21.99900908 39.8999917 18.52089024 39.92395782 C15.18904129 39.9419489 11.85751876 39.92932393 8.52563477 39.91943359 C7.28173477 39.92753052 6.03783478 39.93562744 4.75624084 39.94396973 C-6.3288639 39.82395925 -6.3288639 39.82395925 -10.79077148 35.38818359 C-13.60730216 30.34225861 -13.12168587 25.01561923 -13.10327148 19.38818359 C-13.11938477 18.40333984 -13.13549805 17.41849609 -13.15209961 16.40380859 C-13.15826422 7.28018423 -13.15826422 7.28018423 -9.79077148 3.38818359 C-6.54142461 0.40956594 -4.3660767 0.01017498 0 0 Z M-6.79077148 9.38818359 C-7.25013989 11.53892282 -7.25013989 11.53892282 -7.18920898 13.91552734 C-7.19307617 14.79015625 -7.19694336 15.66478516 -7.20092773 16.56591797 C-7.18932617 17.47664063 -7.17772461 18.38736328 -7.16577148 19.32568359 C-7.17737305 20.23253906 -7.18897461 21.13939453 -7.20092773 22.07373047 C-7.19706055 22.94964844 -7.19319336 23.82556641 -7.18920898 24.72802734 C-7.1858252 25.52587646 -7.18244141 26.32372559 -7.17895508 27.14575195 C-6.68035774 30.02601392 -5.81228669 31.2799288 -3.79077148 33.38818359 C-1.26676491 33.99444793 -1.26676491 33.99444793 1.62695312 33.90576172 C3.28899025 33.92467468 3.28899025 33.92467468 4.98460388 33.94396973 C6.18150345 33.9358728 7.37840302 33.92777588 8.61157227 33.91943359 C10.45544273 33.92517395 10.45544273 33.92517395 12.33656311 33.93103027 C15.60517532 33.9344527 18.87302912 33.91834012 22.14154053 33.89599609 C25.46042409 33.88306525 28.77908716 33.91373289 32.09790039 33.93505859 C34.623295 33.93241505 37.14868849 33.92728953 39.67407227 33.91943359 C40.8689476 33.92753052 42.06382294 33.93562744 43.29490662 33.94396973 C44.40608353 33.93136108 45.51726044 33.91875244 46.66210938 33.90576172 C48.12746376 33.90098816 48.12746376 33.90098816 49.62242126 33.89611816 C52.93171176 33.24631983 54.12614314 31.98463446 56.20922852 29.38818359 C56.81380802 27.25158556 56.81380802 27.25158556 56.74047852 24.98193359 C56.74563477 24.15564453 56.75079102 23.32935547 56.75610352 22.47802734 C56.74063477 21.62337891 56.72516602 20.76873047 56.70922852 19.88818359 C56.72469727 19.03353516 56.74016602 18.17888672 56.75610352 17.29833984 C56.74836914 16.05890625 56.74836914 16.05890625 56.74047852 14.79443359 C56.7359668 14.04484375 56.73145508 13.29525391 56.72680664 12.52294922 C55.99148838 9.49010825 54.60393396 8.35201794 52.20922852 6.38818359 C49.57719667 5.79320262 49.57719667 5.79320262 46.66210938 5.88647461 C44.99534401 5.87240318 44.99534401 5.87240318 43.29490662 5.85804749 C41.50259361 5.87489845 41.50259361 5.87489845 39.67407227 5.89208984 C37.82876671 5.889907 37.82876671 5.889907 35.94618225 5.88768005 C33.34625886 5.88933979 30.74632572 5.90090923 28.14648438 5.92163086 C25.47730487 5.94101878 22.8105785 5.95134288 20.14160156 5.94213867 C16.29802297 5.92957253 12.45512606 5.93819986 8.61157227 5.95458984 C7.4146727 5.95165421 6.21777313 5.94871857 4.98460388 5.94569397 C3.32256676 5.96472023 3.32256676 5.96472023 1.62695312 5.98413086 C0.16279213 5.99223534 0.16279213 5.99223534 -1.33094788 6.00050354 C-4.19088944 6.45124411 -5.09087228 7.08446063 -6.79077148 9.38818359 Z " fill="#7DCAAA" transform="translate(1006.790771484375,68.61181640625)"/>
<path d="M0 0 C4.10941719 1.6942334 6.36768213 4.12291392 8.9375 7.6875 C10.76484869 13.38452827 10.80130506 18.64060177 8.875 24.3125 C6.23986769 28.08952297 3.1675053 30.91624735 -1 33 C-5.95482094 33.54360446 -9.87125852 33.56437074 -14.375 31.3125 C-18.52843673 27.65352002 -21.63234333 24.44753472 -22.23828125 18.765625 C-22.42182356 12.54450678 -21.79743001 8.99661843 -18 4 C-12.83865667 -1.03230975 -6.82379131 -1.05192493 0 0 Z " fill="#FAFDFC" transform="translate(470,1143)"/>
<path d="M0 0 C4.20986727 3.72873958 5.9243704 6.69956942 6.57421875 12.2265625 C6.79049533 19.19216007 6.65683976 25.31763713 2.1875 30.9375 C-1.49010354 34.39877392 -5.50165318 34.50471515 -10.36328125 34.359375 C-14.45120719 33.65523465 -16.11778472 32.05769664 -18.8125 28.9375 C-18.8125 27.6175 -18.8125 26.2975 -18.8125 24.9375 C-15.9375 24.75 -15.9375 24.75 -12.8125 24.9375 C-12.1525 25.9275 -11.4925 26.9175 -10.8125 27.9375 C-7.35500051 28.60426878 -7.35500051 28.60426878 -3.8125 27.9375 C-1.04060842 24.71852913 -0.8125 23.2439427 -0.8125 18.9375 C-1.3075 19.4325 -1.8025 19.9275 -2.3125 20.4375 C-5.77970192 22.51782115 -8.92580796 22.7506467 -12.8125 21.9375 C-16.33435256 19.96071824 -18.51207163 17.8387851 -19.8125 13.9375 C-20.38218464 6.87341048 -20.38218464 6.87341048 -18.0625 3.0625 C-12.8519164 -1.85860674 -6.64706876 -2.51111486 0 0 Z " fill="#F3FAF7" transform="translate(185.8125,70.0625)"/>
<path d="M0 0 C1.10487259 -0.00960754 2.20974518 -0.01921509 3.34809875 -0.02911377 C5.14648445 -0.03548859 5.14648445 -0.03548859 6.98120117 -0.04199219 C8.20949142 -0.04769226 9.43778168 -0.05339233 10.70329285 -0.05926514 C13.30674373 -0.06872588 15.91020665 -0.07525337 18.51367188 -0.07910156 C22.4971514 -0.08565513 26.48026428 -0.11981388 30.46362305 -0.15136719 C32.99031268 -0.15789758 35.51700602 -0.16314791 38.04370117 -0.16699219 C39.23655228 -0.17933899 40.42940338 -0.19168579 41.65840149 -0.20440674 C42.77273056 -0.20140564 43.88705963 -0.19840454 45.03515625 -0.1953125 C46.01285477 -0.19895813 46.99055328 -0.20260376 47.99787903 -0.20635986 C51.24043952 0.23273706 53.08481772 1.23431666 55.71166992 3.16113281 C58.60907009 7.50723306 58.07976036 11.42305712 58.08666992 16.53613281 C58.11116211 17.48230469 58.1356543 18.42847656 58.16088867 19.40332031 C58.1795326 23.8281458 58.16350988 26.42294161 55.81323242 30.26269531 C52.54145787 33.21823887 50.65882788 33.29523909 46.33154297 33.33813477 C44.64420296 33.35738762 44.64420296 33.35738762 42.92277527 33.37702942 C41.70197769 33.38441635 40.48118011 33.39180328 39.22338867 33.39941406 C37.34765923 33.41152168 37.34765923 33.41152168 35.43403625 33.4238739 C32.78346034 33.43772476 30.13300923 33.44873817 27.48242188 33.45629883 C24.09276243 33.46735493 20.703761 33.50174502 17.31433392 33.54147053 C14.07575082 33.57395587 10.83710987 33.57841744 7.59838867 33.58691406 C5.77630135 33.61317619 5.77630135 33.61317619 3.91740417 33.63996887 C2.78305435 33.6370433 1.64870453 33.63411774 0.47998047 33.63110352 C-1.01321465 33.63990288 -1.01321465 33.63990288 -2.53657532 33.64888 C-6.0513531 33.02588735 -7.72938238 31.59648554 -10.28833008 29.16113281 C-12.15738355 25.42302586 -11.5594953 20.96282104 -11.60083008 16.84863281 C-11.62983398 15.89794922 -11.65883789 14.94726562 -11.6887207 13.96777344 C-11.72909296 9.52371964 -11.74952848 6.91711782 -9.39379883 3.05566406 C-6.13930863 0.12722669 -4.29504215 0.03006891 0 0 Z M-8.28833008 6.16113281 C-8.74769848 8.31187204 -8.74769848 8.31187204 -8.68676758 10.68847656 C-8.69063477 11.56310547 -8.69450195 12.43773438 -8.69848633 13.33886719 C-8.68688477 14.24958984 -8.6752832 15.1603125 -8.66333008 16.09863281 C-8.67493164 17.00548828 -8.6865332 17.91234375 -8.69848633 18.84667969 C-8.69461914 19.72259766 -8.69075195 20.59851563 -8.68676758 21.50097656 C-8.68338379 22.29882568 -8.68 23.0966748 -8.67651367 23.91870117 C-8.17791634 26.79896314 -7.30984528 28.05287802 -5.28833008 30.16113281 C-2.76432351 30.76739715 -2.76432351 30.76739715 0.12939453 30.67871094 C1.79143166 30.6976239 1.79143166 30.6976239 3.48704529 30.71691895 C4.68394485 30.70882202 5.88084442 30.7007251 7.11401367 30.69238281 C8.95788414 30.69812317 8.95788414 30.69812317 10.83900452 30.70397949 C14.10761673 30.70740192 17.37547053 30.69128933 20.64398193 30.66894531 C23.9628655 30.65601447 27.28152856 30.6866821 30.6003418 30.70800781 C33.12573641 30.70536427 35.6511299 30.70023875 38.17651367 30.69238281 C39.37138901 30.70047974 40.56626434 30.70857666 41.79734802 30.71691895 C42.90852493 30.7043103 44.01970184 30.69170166 45.16455078 30.67871094 C46.62990517 30.67393738 46.62990517 30.67393738 48.12486267 30.66906738 C51.43415317 30.01926905 52.62858454 28.75758368 54.71166992 26.16113281 C55.31624943 24.02453478 55.31624943 24.02453478 55.24291992 21.75488281 C55.24807617 20.92859375 55.25323242 20.10230469 55.25854492 19.25097656 C55.24307617 18.39632812 55.22760742 17.54167969 55.21166992 16.66113281 C55.22713867 15.80648437 55.24260742 14.95183594 55.25854492 14.07128906 C55.25081055 12.83185547 55.25081055 12.83185547 55.24291992 11.56738281 C55.2384082 10.81779297 55.23389648 10.06820312 55.22924805 9.29589844 C54.49392979 6.26305747 53.10637537 5.12496716 50.71166992 3.16113281 C48.07963808 2.56615184 48.07963808 2.56615184 45.16455078 2.65942383 C43.49778542 2.6453524 43.49778542 2.6453524 41.79734802 2.6309967 C40.00503502 2.64784767 40.00503502 2.64784767 38.17651367 2.66503906 C36.33120811 2.66285622 36.33120811 2.66285622 34.44862366 2.66062927 C31.84870026 2.66228901 29.24876713 2.67385845 26.64892578 2.69458008 C23.97974627 2.713968 21.31301991 2.7242921 18.64404297 2.71508789 C14.80046438 2.70252175 10.95756747 2.71114908 7.11401367 2.72753906 C5.91711411 2.72460342 4.72021454 2.72166779 3.48704529 2.71864319 C1.82500816 2.73766945 1.82500816 2.73766945 0.12939453 2.75708008 C-1.33476646 2.76518456 -1.33476646 2.76518456 -2.82850647 2.77345276 C-5.68844803 3.22419333 -6.58843087 3.85740984 -8.28833008 6.16113281 Z " fill="#3FB283" transform="translate(1008.288330078125,71.8388671875)"/>
<path d="M0 0 C0 7.26 0 14.52 0 22 C1.65 22 3.3 22 5 22 C5 23.65 5 25.3 5 27 C3.35 27 1.7 27 0 27 C0 28.98 0 30.96 0 33 C-1.65 33 -3.3 33 -5 33 C-5 31.02 -5 29.04 -5 27 C-10.61 27 -16.22 27 -22 27 C-22 19.61953048 -19.79613298 16.25496916 -16.0625 10.125 C-15.51787109 9.15046875 -14.97324219 8.1759375 -14.41210938 7.171875 C-13.85458984 6.25148438 -13.29707031 5.33109375 -12.72265625 4.3828125 C-12.22515869 3.54121582 -11.72766113 2.69961914 -11.21508789 1.83251953 C-9 0 -9 0 0 0 Z " fill="#FAFDFC" transform="translate(233,70)"/>
<path d="M0 0 C2.82032321 1.83836648 5.44775343 3.80609178 8 6 C7.03543879 8.41140302 6.24777539 9.80466951 4.19140625 11.42578125 C2 12 2 12 -0.47265625 10.91796875 C-1.32730469 10.34691406 -2.18195312 9.77585937 -3.0625 9.1875 C-10.23385426 4.47489577 -16.49272832 4.16470758 -25 5 C-28.63081149 6.26535433 -31.73971827 7.98521916 -35 10 C-36.32688855 10.67940342 -37.65827542 11.35038674 -39 12 C-40.32 10.68 -41.64 9.36 -43 8 C-41.5371193 4.24527287 -39.69906775 2.8712786 -36.25 0.875 C-35.40953125 0.37742187 -34.5690625 -0.12015625 -33.703125 -0.6328125 C-22.91089115 -6.09131228 -10.67366615 -5.52952878 0 0 Z " fill="#F7FCFA" transform="translate(962,73)"/>
<path d="M0 0 C3.5 0.125 3.5 0.125 4.5 1.125 C4.60087212 3.63424153 4.63972032 6.11536384 4.6328125 8.625 C4.63376923 9.37587891 4.63472595 10.12675781 4.63571167 10.90039062 C4.63639338 12.49088627 4.63453972 14.08138467 4.63037109 15.671875 C4.62502267 18.11464655 4.63031634 20.55723421 4.63671875 23 C4.63605797 24.54166707 4.6347768 26.08333403 4.6328125 27.625 C4.63483673 28.36041016 4.63686096 29.09582031 4.63894653 29.85351562 C4.61495161 35.01004839 4.61495161 35.01004839 3.5 36.125 C0 36.25 0 36.25 -3.5 36.125 C-5.2329298 34.3920702 -4.62820046 32.16285664 -4.63894653 29.85351562 C-4.6369223 29.11810547 -4.63489807 28.38269531 -4.6328125 27.625 C-4.63376923 26.87412109 -4.63472595 26.12324219 -4.63571167 25.34960938 C-4.63639338 23.75911373 -4.63453972 22.16861533 -4.63037109 20.578125 C-4.62502267 18.13535345 -4.63031634 15.69276579 -4.63671875 13.25 C-4.63605797 11.70833293 -4.6347768 10.16666597 -4.6328125 8.625 C-4.63483673 7.88958984 -4.63686096 7.15417969 -4.63894653 6.39648438 C-4.60994786 0.16464099 -4.60994786 0.16464099 0 0 Z " fill="#FAFDFB" transform="translate(890.5,68.875)"/>
<path d="M0 0 C3.5 0.125 3.5 0.125 4.5 1.125 C4.59993532 3.1855531 4.63080906 5.2495259 4.6328125 7.3125 C4.63474609 9.19582031 4.63474609 9.19582031 4.63671875 11.1171875 C4.63357666 12.10283691 4.63357666 12.10283691 4.63037109 13.10839844 C4.62502234 15.11661335 4.63031691 17.12460459 4.63671875 19.1328125 C4.63542969 20.38835937 4.63414062 21.64390625 4.6328125 22.9375 C4.63168457 24.09894531 4.63055664 25.26039062 4.62939453 26.45703125 C4.5 29.125 4.5 29.125 3.5 30.125 C0 30.25 0 30.25 -3.5 30.125 C-5.33034055 28.29465945 -4.63042797 25.39288008 -4.6328125 22.9375 C-4.63410156 21.68195313 -4.63539063 20.42640625 -4.63671875 19.1328125 C-4.63462402 18.47571289 -4.6325293 17.81861328 -4.63037109 17.14160156 C-4.62502234 15.13338665 -4.63031691 13.12539541 -4.63671875 11.1171875 C-4.63542969 9.86164063 -4.63414062 8.60609375 -4.6328125 7.3125 C-4.63112061 5.57033203 -4.63112061 5.57033203 -4.62939453 3.79296875 C-4.43352042 -0.24573359 -4.17496015 0.14910572 0 0 Z " fill="#FAFCFB" transform="translate(875.5,74.875)"/>
<path d="M0 0 C2.87789184 1.36321192 5.18021361 2.6029994 7.5625 4.6875 C6.98905063 7.55474686 6.7010485 8.5489515 4.5625 10.6875 C1.96582401 10.41416569 -0.00402046 9.92751078 -2.29296875 8.66015625 C-6.15838362 6.90698994 -10.28114437 7.21441887 -14.4375 7.6875 C-17.23647943 9.14861016 -17.23647943 9.14861016 -19.4375 10.6875 C-22.47409495 10.42722043 -23.2475858 9.8774142 -25.4375 7.6875 C-25.25622728 5.0217247 -24.76886067 3.98033036 -22.7578125 2.203125 C-15.29545228 -2.09901861 -8.20387393 -2.85153239 0 0 Z " fill="#F4FAF8" transform="translate(953.4375,82.3125)"/>
<path d="M0 0 C0 10.89 0 21.78 0 33 C-1.98 33 -3.96 33 -6 33 C-6.33 24.42 -6.66 15.84 -7 7 C-8.98 8.32 -10.96 9.64 -13 11 C-13.66 11 -14.32 11 -15 11 C-15.22265625 8.70703125 -15.22265625 8.70703125 -15 6 C-13.49609375 4.19921875 -13.49609375 4.19921875 -11.4375 2.6875 C-10.44556641 1.91986328 -10.44556641 1.91986328 -9.43359375 1.13671875 C-7 0 -7 0 0 0 Z " fill="#F8FCFA" transform="translate(257,70)"/>
<path d="M0 0 C2.5 0.25 2.5 0.25 4.5 2.25 C4.67179052 5.14132177 4.7322947 7.92442065 4.6875 10.8125 C4.68685547 11.60591797 4.68621094 12.39933594 4.68554688 13.21679688 C4.64025522 19.10974478 4.64025522 19.10974478 3.5 20.25 C0 20.375 0 20.375 -3.5 20.25 C-5.60131385 18.14868615 -4.68514741 13.70853678 -4.6875 10.8125 C-4.69974609 10.02294922 -4.71199219 9.23339844 -4.72460938 8.41992188 C-4.72987279 6.36192565 -4.62206285 4.30437991 -4.5 2.25 C-2.5 0.25 -2.5 0.25 0 0 Z " fill="#F7FBFA" transform="translate(860.5,84.75)"/>
<path d="M0 0 C3.50367037 0.35036704 4.86023555 0.61220392 7.125 3.3125 C7.55560657 6.75735259 7.75835287 9.15756242 6.0625 12.25 C2.97006242 13.94585287 0.56985259 13.74310657 -2.875 13.3125 C-4.875 11.75 -4.875 11.75 -5.875 9.3125 C-5.42381266 0.58954485 -5.42381266 0.58954485 0 0 Z " fill="#3FB283" transform="translate(177.875,73.6875)"/>
<path d="M0 0 C0.99 0.66 1.98 1.32 3 2 C2.52753358 6.25219775 0.22727623 8.37314725 -3 11 C-5 11.125 -5 11.125 -7 10 C-9.75 7.4375 -9.75 7.4375 -12 5 C-9.45838845 -0.62785415 -5.90055895 -0.68937223 0 0 Z " fill="#F4FAF8" transform="translate(949,93)"/>
<path d="M0 0 C0.33 0 0.66 0 1 0 C1 5.61 1 11.22 1 17 C-2.63 17 -6.26 17 -10 17 C-7.07331307 10.89576727 -4.17514565 5.33490834 0 0 Z " fill="#3EB283" transform="translate(227,75)"/>
<path d="M0 0 C3.5 0.125 3.5 0.125 4.5 1.125 C4.59823937 2.78929051 4.62973631 4.45781931 4.625 6.125 C4.62757813 7.0325 4.63015625 7.94 4.6328125 8.875 C4.5 11.125 4.5 11.125 3.5 12.125 C0 12.25 0 12.25 -3.5 12.125 C-4.5 11.125 -4.5 11.125 -4.6328125 8.875 C-4.63023437 7.9675 -4.62765625 7.06 -4.625 6.125 C-4.62757813 5.2175 -4.63015625 4.31 -4.6328125 3.375 C-4.41402887 -0.33145204 -3.860461 0.13787361 0 0 Z " fill="#F6FBF9" transform="translate(845.5,92.875)"/>
<path d="M0 0 C1.66611905 -0.042721 3.33382885 -0.04063832 5 0 C6 1 6 1 6.0625 3.5625 C6.041875 4.366875 6.02125 5.17125 6 6 C3.625 6.625 3.625 6.625 1 7 C0.34 6.34 -0.32 5.68 -1 5 C-0.625 2.375 -0.625 2.375 0 0 Z " fill="#F4FAF8" transform="translate(199,92)"/>
<path d="M0 0 C2.625 0.375 2.625 0.375 5 1 C5.042721 2.66611905 5.04063832 4.33382885 5 6 C4 7 4 7 1.4375 7.0625 C0.2309375 7.0315625 0.2309375 7.0315625 -1 7 C-1.625 4.625 -1.625 4.625 -2 2 C-1.34 1.34 -0.68 0.68 0 0 Z " fill="#F3FAF7" transform="translate(200,74)"/>
<path d="M0 0 C1.32 0.99 2.64 1.98 4 3 C4.51020728 7.08165827 4.31361802 8.52957297 2 12 C1.34 12 0.68 12 0 12 C0 8.04 0 4.08 0 0 Z " fill="#83CDAF" transform="translate(1072,84)"/>
<path d="M0 0 C0.33 0 0.66 0 1 0 C1 5.61 1 11.22 1 17 C0.67 17 0.34 17 0 17 C-0.33 13.04 -0.66 9.08 -1 5 C-1.99 5.495 -1.99 5.495 -3 6 C-1.125 1.125 -1.125 1.125 0 0 Z " fill="#54BB91" transform="translate(227,75)"/>
</svg>
